:SAMPLES-PER-SECOND 30
:FULLY-SPECIFIED
:DEGREES
621
root  53.8635 38.3908 3.42746 -170.165 -83.4991 163.67
RightUpLeg  -13.9715 -7.05479 -6.38693
RightLeg  -3.38641 12.0644 -1.97821
RightFoot  -2.65909 -1.00256 12.9289
RightToes  2.96859e-009 0 -3.6325e-017
Spine  5.73232 -0.593137 1.41583
Spine1  11.254 -0.253721 -2.00178
HEad  -5.06591 -20.3457 -6.75624
LeftShoulder1  0.243425 2.79435 -28.1646
LeftArm  -16.5175 2.21757 -39.6796
LeftForeArm  77.091 -78.7285 -99.9846
LeftHand  -0.0301188 5.30297 -3.18763
RightShoulder  -0.539725 -5.16593 25.6929
RightArm  -18.5726 -7.75155 36.4615
RightForeArm  109.633 70.3018 144.837
RightHand  -0.0427721 -3.67656 -1.62882
LeftUpLeg  10.6984 7.62274 -2.80152
LeftLeg  13.1892 -5.64425 -2.12309
LeftFoot  -17.8056 0.525268 7.39399
LeftToes  3.24686e-010 -7.02549e-012 1.39809e-011
622
root  52.7141 38.1648 3.02167 -166.639 -84.4193 159.795
RightUpLeg  -14.3041 -7.01794 -6.23526
RightLeg  -1.36956 8.48519 -1.10231
RightFoot  -2.3481 -0.902976 11.1603
RightToes  2.96859e-009 0 -3.6325e-017
Spine  5.2293 -0.730533 1.54033
Spine1  11.7823 -0.483935 -1.81206
HEad  -5.59105 -20.1323 -6.83812
LeftShoulder1  0.21794 2.8723 -28.3524
LeftArm  -16.8073 2.78731 -39.3475
LeftForeArm  77.8746 -78.6941 -100.859
LeftHand  -0.0334331 5.37693 -3.65922
RightShoulder  -0.51642 -5.08271 25.8984
RightArm  -18.0326 -7.89203 36.2301
RightForeArm  109.322 70.2253 144.946
RightHand  -0.0364767 -4.04118 -1.40721
LeftUpLeg  12.9211 7.59468 -2.24194
LeftLeg  13.6609 -6.88414 -1.80735
LeftFoot  -19.7119 0.604502 6.64277
LeftToes  3.24686e-010 -7.02549e-012 1.39809e-011
623
root  51.4581 37.8877 2.57404 -168.892 -84.62 162.05
RightUpLeg  -15.4741 -5.82312 -5.23137
RightLeg  4.17178 5.5934 -0.473008
RightFoot  -0.793561 -0.861783 9.60405
RightToes  2.96859e-009 0 -3.6325e-017
Spine  3.80003 -0.621727 2.62277
Spine1  12.9776 -0.284885 -2.18905
HEad  -6.09079 -19.2256 -6.86216
LeftShoulder1  0.153847 3.05221 -27.899
LeftArm  -17.0771 3.40442 -39.6242
LeftForeArm  79.1077 -78.656 -101.948
LeftHand  -0.0257069 5.15595 -2.95038
RightShoulder  -0.488786 -5.00898 25.6437
RightArm  -17.8357 -7.75188 36.9604
RightForeArm  109.198 70.4308 144.535
RightHand  -0.0445813 -3.38549 -1.37348
LeftUpLeg  14.7152 6.99887 -1.72089
LeftLeg  14.4584 -6.38247 -0.966403
LeftFoot  -21.7124 0.672873 5.9508
LeftToes  3.24686e-010 -7.02549e-012 1.39809e-011
624
root  50.2682 37.7537 2.165 -179.359 -86.1787 172.338
RightUpLeg  -16.4813 -4.71901 -4.0762
RightLeg  9.60013 4.70567 0.126709
RightFoot  4.47963 -0.636656 4.69713
RightToes  2.96859e-009 0 -3.6325e-017
Spine  3.59183 -1.18078 4.89603
Spine1  13.0976 -0.74709 -2.14867
HEad  -5.58852 -19.14 -7.23892
LeftShoulder1  0.115729 3.16429 -27.8949
LeftArm  -16.9845 4.35938 -38.878
LeftForeArm  81.4713 -78.5504 -104.315
LeftHand  -0.036269 5.48089 -3.88698
RightShoulder  -0.451958 -4.9011 25.4439
RightArm  -17.3187 -8.2498 37.3437
RightForeArm  109.731 70.186 145.069
RightHand  -0.0731275 -3.0595 -2.82455
LeftUpLeg  16.7747 4.30749 -0.86835
LeftLeg  14.6401 -5.07845 -0.142889
LeftFoot  -22.7343 0.648247 5.14705
LeftToes  3.24686e-010 -7.02549e-012 1.39809e-011
625
root  48.9644 37.5467 1.72442 155.076 -86.9413 -162.463
RightUpLeg  -17.0172 -2.94093 -2.71468
RightLeg  15.171 3.55039 0.64928
RightFoot  6.80547 -0.571653 3.82849
RightToes  2.96859e-009 0 -3.6325e-017
Spine  1.98014 -1.20039 6.88405
Spine1  15.2067 -1.02563 -1.25986
HEad  -6.99423 -18.4408 -7.12641
LeftShoulder1  0.128941 3.13563 -28.8793
LeftArm  -16.7752 3.84385 -38.3606
LeftForeArm  79.0077 -78.6294 -102.239
LeftHand  -0.0158489 4.92735 -3.97725
RightShoulder  -0.408845 -4.78641 24.9091
RightArm  -17.6953 -8.66787 37.3752
RightForeArm  110.922 69.9991 145.56
RightHand  -0.0539629 -3.30859 -1.70728
LeftUpLeg  17.8779 0.225575 0.0768748
LeftLeg  17.6898 -1.84196 0.180517
LeftFoot  -24.0946 0.42199 2.51457
LeftToes  3.24686e-010 -7.02549e-012 1.39809e-011
626
root  47.707 37.394 1.29759 132.239 -86.3544 -139.495
RightUpLeg  -17.7976 -2.07825 -0.931713
RightLeg  20.739 2.37985 0.816158
RightFoot  2.94768 -0.326758 2.76373
RightToes  2.96859e-009 0 -3.6325e-017
Spine  2.19145 -1.34809 10.0956
Spine1  14.2813 -0.627833 -2.4029
HEad  -7.21171 -17.4569 -7.04649
LeftShoulder1  0.089292 3.24767 -28.7303
LeftArm  -16.3119 5.05206 -38.2734
LeftForeArm  79.2211 -78.6197 -102.458
LeftHand  -0.0193613 4.95349 -3.06612
RightShoulder  -0.512156 -5.07807 25.7371
RightArm  -16.6556 -8.782 36.76
RightForeArm  108.946 70.3427 144.673
RightHand  -0.117765 -1.95003 -3.72733
LeftUpLeg  16.9107 -1.59457 1.8493
LeftLeg  23.6821 -1.18535 -0.328901
LeftFoot  -23.8855 -0.0753478 -2.05297
LeftToes  3.24686e-010 -7.02549e-012 1.39809e-011
627
root  46.6257 37.348 0.879274 116.58 -86.0233 -123.849
RightUpLeg  -17.3527 -2.45827 0.4751
RightLeg  23.8084 2.11704 0.798693
RightFoot  -0.159087 -0.192393 1.97014
RightToes  2.96859e-009 0 -3.6325e-017
Spine  2.91248 -1.6293 11.64
Spine1  13.6448 -0.687159 -1.78006
HEad  -7.58197 -16.3944 -7.0468
LeftShoulder1  0.0886556 3.25239 -29.0912
LeftArm  -16.5523 6.17303 -38.3707
LeftForeArm  79.3281 -78.6712 -101.891
LeftHand  -0.0292788 5.27748 -3.83684
RightShoulder  -0.514429 -5.09203 25.5838
RightArm  -16.3549 -8.81176 36.9386
RightForeArm  108.233 70.9091 143.457
RightHand  -0.0660796 -3.06136 -2.55322
LeftUpLeg  13.8457 -1.57666 4.08172
LeftLeg  32.435 -2.66588 -1.47438
LeftFoot  -20.086 -0.395011 -7.08899
LeftToes  3.24686e-010 -7.02549e-012 1.39809e-011
628
root  45.6082 37.4071 0.490434 95.2981 -85.7689 -101.868
RightUpLeg  -16.7019 -3.56271 1.62411
RightLeg  24.9837 1.85756 0.715458
RightFoot  -2.77044 -0.152063 1.77931
RightToes  2.96859e-009 0 -3.6325e-017
Spine  2.6853 -1.97361 12.9256
Spine1  13.1774 -0.92702 -1.22732
HEad  -7.99485 -15.7761 -6.90497
LeftShoulder1  0.131704 3.13258 -29.3757
LeftArm  -16.5176 6.67634 -38.4326
LeftForeArm  77.0958 -78.7546 -99.6336
LeftHand  -0.024846 5.08393 -3.50052
RightShoulder  -0.493299 -5.03006 25.487
RightArm  -16.0831 -9.13063 37.0563
RightForeArm  107.967 71.1 143.023
RightHand  -0.0586158 -3.16545 -2.19662
LeftUpLeg  7.86539 -1.9582 5.91617
LeftLeg  42.8024 -2.14624 -1.67115
LeftFoot  -10.9637 0.0405253 -9.20099
LeftToes  3.24686e-010 -7.02549e-012 1.39809e-011
629
root  44.6043 37.586 0.14791 75.8802 -85.5006 -82.5833
RightUpLeg  -14.5528 -5.49176 2.1086
RightLeg  24.967 2.30186 0.93562
RightFoot  -4.76543 -0.124973 1.61317
RightToes  2.96859e-009 0 -3.6325e-017
Spine  2.53066 -2.28368 13.5957
Spine1  13.8748 -1.13134 -0.935844
HEad  -8.22353 -15.9745 -6.17132
LeftShoulder1  0.183665 2.98012 -28.9356
LeftArm  -16.7157 5.93695 -39.2426
LeftForeArm  76.3174 -78.8443 -97.9242
LeftHand  -0.0511539 5.74424 -4.9055
RightShoulder  -0.438134 -4.87302 25.1074
RightArm  -16.532 -9.13999 37.0244
RightForeArm  107.516 70.9683 143.243
RightHand  -0.0739757 -2.78527 -2.67728
LeftUpLeg  2.23992 -2.20076 6.59059
LeftLeg  51.8872 -0.320137 0.0270046
LeftFoot  1.31849 0.576793 -5.36293
LeftToes  3.24686e-010 -7.02549e-012 1.39809e-011
630
root  43.6186 37.7483 -0.164685 64.0078 -85.1976 -70.9818
RightUpLeg  -12.2305 -7.06195 2.30408
RightLeg  24.6966 2.78258 1.17297
RightFoot  -6.67074 -0.106371 1.49895
RightToes  2.96859e-009 0 -3.6325e-017
Spine  2.82996 -2.37079 14.2275
Spine1  14.1371 -0.960002 -0.967418
HEad  -8.12295 -16.4063 -5.44591
LeftShoulder1  0.205104 2.91248 -28.537
LeftArm  -16.1698 5.20867 -39.5471
LeftForeArm  76.062 -78.8204 -98.111
LeftHand  -0.0386769 5.54764 -3.53838
RightShoulder  -0.436859 -4.88948 24.6315
RightArm  -16.818 -9.32315 36.968
RightForeArm  108.149 70.7823 143.706
RightHand  -0.0478099 -4.12695 -2.41031
LeftUpLeg  -2.54844 -1.79333 6.82375
LeftLeg  58.5171 0.353091 1.10752
LeftFoot  5.65322 0.251536 -1.80382
LeftToes  3.24686e-010 -7.02549e-012 1.39809e-011
631
root  42.5879 38.0252 -0.471412 55.4651 -85.5771 -62.8484
RightUpLeg  -9.22046 -8.20025 1.74207
RightLeg  23.4057 3.40758 1.49456
RightFoot  -7.88412 -0.0911749 1.23981
RightToes  2.96859e-009 0 -3.6325e-017
Spine  3.17971 -2.37024 14.1151
Spine1  13.954 -0.695969 -1.63213
HEad  -7.19014 -16.2019 -5.07894
LeftShoulder1  0.19932 2.92397 -28.2233
LeftArm  -15.8112 4.75087 -39.3267
LeftForeArm  75.0046 -78.8283 -97.3428
LeftHand  -0.0243653 5.1538 -3.26942
RightShoulder  -0.423436 -4.85123 24.5124
RightArm  -16.8796 -8.99376 36.9311
RightForeArm  106.315 71.0139 143.001
RightHand  -0.0685512 -3.29207 -2.87858
LeftUpLeg  -6.30042 -0.946054 6.28951
LeftLeg  62.193 -0.344454 -0.102893
LeftFoot  2.57374 0.310681 -2.66779
LeftToes  3.24686e-010 -7.02549e-012 1.39809e-011
